<svg xmlns="http://www.w3.org/2000/svg" viewBox="0 0 149 155.31"><defs><style>.cls-1{fill:#fff;}.cls-2,.cls-3{fill:#231815;}.cls-2,.cls-4{stroke:#231815;stroke-miterlimit:10;stroke-width:2px;}.cls-4{fill:none;}.cls-5{fill:#dd5c57;}.cls-6{fill:#eba747;}.cls-7{fill:#44aa4d;}</style></defs><title>资源 22</title><g id="图层_2" data-name="图层 2"><g id="图层_1-2" data-name="图层 1"><rect class="cls-1" y="6.31" width="149" height="149"/><path class="cls-2" d="M26.1,79.15H54.51v2H27.88v9.61a1.78,1.78,0,0,1-1.78,1.78h0Z"/><path class="cls-2" d="M95.24,79.15h28.42v2H97v9.61a1.78,1.78,0,0,1-1.78,1.78h0Z"/><path class="cls-3" d="M80,112.24,74.5,101.16,69,112.24a1.53,1.53,0,0,1-2.06.69h0l6.81-13.64a.89.89,0,0,1,1.58,0l6.81,13.64h0A1.53,1.53,0,0,1,80,112.24Z"/><line class="cls-4" x1="69.55" y1="109.43" x2="79.53" y2="109.43"/><path class="cls-5" d="M20.5,26.84a8.62,8.62,0,0,1,9-9,8.62,8.62,0,0,1,9,9c0,5.67-4.13,9-9,9S20.5,32.51,20.5,26.84Z"/><path class="cls-6" d="M65.5,26.84a8.62,8.62,0,0,1,9-9,8.62,8.62,0,0,1,9,9c0,5.67-4.13,9-9,9S65.5,32.51,65.5,26.84Z"/><path class="cls-7" d="M110.5,26.84a9,9,0,1,1,18,0c0,5.67-4.13,9-9,9S110.5,32.51,110.5,26.84Z"/><path class="cls-3" d="M149,155.31H0V6.31H149Zm-144-5H121.26A22.74,22.74,0,0,0,144,127.56V11.31H5Z"/><rect class="cls-4" x="11.5" y="71.81" width="54" height="27"/><rect class="cls-4" x="83.5" y="71.81" width="54" height="27"/><path class="cls-3" d="M26.43,17.47A2,2,0,0,0,27,19a2.38,2.38,0,0,0,1.65.54h1.75v2H28.24A4.69,4.69,0,0,1,25,20.44a3.87,3.87,0,0,1-1.15-3V0h2.62Z"/><path class="cls-3" d="M70.75,17.47a1.94,1.94,0,0,0,.6,1.52,2.34,2.34,0,0,0,1.65.54h1.74v2H72.56a4.65,4.65,0,0,1-3.27-1.07,3.88,3.88,0,0,1-1.16-3V0h2.62Z"/><path class="cls-3" d="M107.58,19.82A6.18,6.18,0,0,1,105.76,15a6.1,6.1,0,0,1,1.66-4.58,6.52,6.52,0,0,1,4.72-1.62h6.28l.26,2.7h-6.53a4,4,0,0,0-2.81.92,3.34,3.34,0,0,0-1,2.58,3.29,3.29,0,0,0,1.25,2.75,5.62,5.62,0,0,0,3.53,1,10.54,10.54,0,0,0,3.79-.54c.9-.37,1.35-.88,1.35-1.54l.38,2.74a5,5,0,0,1-1.45,1.12,7.41,7.41,0,0,1-2,.72,11.91,11.91,0,0,1-2.45.24A7.3,7.3,0,0,1,107.58,19.82ZM118.26,8A5.75,5.75,0,0,0,117,4a4.37,4.37,0,0,0-3.49-1.4,7.51,7.51,0,0,0-2.64.48,7.21,7.21,0,0,0-2.3,1.37L106.69,3A7.13,7.13,0,0,1,109.52.8a9.39,9.39,0,0,1,3.91-.8,8.3,8.3,0,0,1,4,.92A6.1,6.1,0,0,1,120,3.57a9.37,9.37,0,0,1,.87,4.2V21.21h-2.62Z"/></g></g></svg>